<?xml version="1.0" standalone="no"?>
<!DOCTYPE svg PUBLIC "-//W3C//DTD SVG 20010904//EN"
 "http://www.w3.org/TR/2001/REC-SVG-20010904/DTD/svg10.dtd">
<svg version="1.0" xmlns="http://www.w3.org/2000/svg"
 width="1024.000000pt" height="1024.000000pt" viewBox="0 0 1024.000000 1024.000000"
 preserveAspectRatio="xMidYMid meet">

<g transform="translate(0.000000,1024.000000) scale(0.100000,-0.100000)"
fill="#000000" stroke="none">
<path d="M4870 8560 c-635 -77 -1378 -345 -1704 -614 -112 -93 -210 -246 -246
-387 -54 -207 8 -550 151 -833 70 -137 120 -208 213 -302 116 -116 224 -159
336 -135 29 6 54 10 54 9 1 -2 20 -48 41 -103 52 -131 124 -254 213 -366 l72
-90 -85 -172 c-170 -345 -245 -670 -245 -1068 l0 -136 -92 -33 c-448 -155
-662 -504 -597 -977 43 -314 227 -734 443 -1009 25 -32 44 -59 42 -61 -4 -4
-126 39 -246 87 -149 60 -318 148 -440 230 -58 38 -113 70 -123 70 -29 0 -57
-37 -57 -75 0 -98 165 -312 357 -463 l72 -57 -382 -5 c-417 -5 -419 -6 -466
-66 -46 -58 -15 -159 59 -196 33 -17 190 -18 2850 -18 1880 0 2827 3 2852 10
20 6 50 26 67 46 26 28 31 43 31 83 0 55 -23 91 -73 118 -29 14 -106 17 -703
21 l-672 5 82 111 c297 400 461 732 533 1076 34 165 36 345 4 465 -45 171
-153 340 -284 445 -76 61 -228 141 -322 169 l-70 21 -1 163 c-2 183 -26 370
-74 565 -41 168 -88 289 -185 479 l-83 163 50 62 c107 133 202 296 248 428 13
36 26 69 30 73 4 5 33 4 64 -2 199 -37 382 112 549 445 150 298 207 611 148
818 -38 136 -93 228 -201 337 -98 99 -176 155 -334 240 -330 175 -860 344
-1306 415 -113 18 -464 26 -570 14z m445 -328 c286 -77 520 -301 708 -677 160
-320 236 -624 224 -895 -12 -263 -105 -487 -290 -700 -329 -380 -883 -496
-1332 -281 -234 111 -396 257 -524 469 -190 316 -203 643 -46 1117 185 557
498 909 872 980 103 19 293 13 388 -13z m-1282 -259 c-151 -233 -280 -539
-354 -838 -36 -146 -69 -366 -69 -458 0 -67 0 -68 -22 -56 -42 22 -119 103
-164 171 -54 81 -116 220 -150 337 -105 361 -3 548 411 752 99 48 348 147 378
148 4 1 -9 -25 -30 -56z m2238 7 c176 -67 361 -157 453 -220 194 -134 263
-274 236 -476 -24 -181 -143 -459 -245 -572 -55 -60 -112 -108 -120 -100 -2 2
-9 60 -14 128 -23 273 -91 552 -201 816 -40 97 -155 324 -189 374 -31 45 -63
100 -58 100 3 0 65 -23 138 -50z m-1923 -2520 c70 -43 204 -104 296 -134 390
-129 832 -87 1171 113 l89 52 18 -23 c110 -146 214 -412 255 -654 15 -88 18
-161 17 -384 -1 -499 -52 -916 -170 -1373 -29 -111 -144 -471 -179 -558 -5
-14 6 -17 77 -21 102 -7 178 -41 252 -114 57 -57 111 -164 121 -240 l7 -52
-364 -4 c-200 -2 -366 -3 -370 0 -5 2 -8 427 -8 945 l0 942 -23 40 c-32 56
-88 87 -153 82 -63 -4 -105 -33 -133 -90 -21 -43 -21 -51 -21 -980 l0 -937
-130 0 -130 0 0 930 c0 817 -2 935 -15 968 -31 72 -86 112 -155 112 -69 0
-135 -50 -159 -119 -8 -24 -11 -296 -11 -962 l0 -929 -365 0 c-415 0 -375 -10
-354 92 25 117 112 231 216 284 47 23 74 30 141 33 45 1 82 5 82 8 0 3 -23 71
-51 152 -183 528 -276 1060 -295 1676 -13 422 37 712 171 987 41 84 108 188
120 188 3 0 27 -13 53 -30z m-654 -1597 c42 -401 107 -726 206 -1036 23 -71
40 -130 38 -131 -2 -2 -29 -20 -60 -40 -31 -21 -82 -64 -112 -97 -30 -32 -58
-59 -61 -59 -3 0 -37 48 -76 108 -209 321 -341 699 -326 932 10 146 61 260
160 358 55 55 173 131 203 132 7 0 17 -64 28 -167z m2899 141 c209 -105 319
-300 304 -538 -7 -100 -47 -271 -98 -411 -43 -119 -159 -347 -238 -466 l-63
-97 -70 74 c-38 40 -92 87 -119 104 -27 18 -49 33 -49 34 0 2 11 36 25 77 94
274 174 650 212 1002 15 136 31 247 36 247 5 0 32 -11 60 -26z"/>
<path d="M4533 7380 c-131 -31 -201 -176 -141 -290 63 -117 214 -145 313 -59
46 41 79 121 70 173 -18 118 -134 202 -242 176z"/>
<path d="M5572 7378 c-59 -13 -126 -78 -142 -137 -23 -86 5 -162 81 -223 51
-41 136 -49 202 -20 54 24 101 89 112 153 15 87 -64 207 -146 224 -19 3 -41 8
-49 10 -8 1 -34 -2 -58 -7z"/>
<path d="M4876 6860 c-35 -11 -82 -54 -103 -94 -20 -39 -12 -121 18 -184 29
-60 111 -142 172 -171 l47 -23 0 -59 c0 -110 -53 -179 -135 -179 -38 0 -51 6
-95 45 -28 25 -58 45 -66 45 -9 0 -29 -14 -46 -30 -26 -27 -30 -36 -25 -67 14
-86 123 -163 231 -163 70 0 124 21 179 69 l36 32 53 -39 c65 -48 105 -62 177
-62 72 0 143 33 194 88 44 50 51 108 17 142 -35 35 -62 30 -117 -21 -36 -33
-49 -39 -86 -39 -90 0 -147 68 -147 176 l0 61 49 23 c97 45 194 169 207 261 8
64 -35 144 -95 176 -42 22 -53 23 -240 22 -108 0 -209 -5 -225 -9z"/>
</g>
</svg>
